<svg xmlns="http://www.w3.org/2000/svg" viewBox="0 0 425.2 130.59"><defs><style>.cls-1{fill:#fff;fill-rule:evenodd;}</style></defs><title>资源 2</title><g id="图层_2" data-name="图层 2"><g id="_" data-name="ͼ"><path class="cls-1" d="M154.34,88.26V71.63H186.1V88.26H164.87a26.44,26.44,0,0,1-2.54,3.4h25.81c0,1.25-.11,3.68-.34,7.3-.11,1.59-.17,2.72-.17,3.4q-.17,7.64-7.3,7.3h-2.21c-1.47.11-2.6.17-3.39.17-.12-.46-.28-1.13-.51-2s-.39-1.64-.51-2.21c1.47.12,3.17.17,5.09.17q4.41.35,4.59-3.91.34-3.73.34-6.45H178.8q-2.72,9.51-12.9,15.28a17.9,17.9,0,0,0-3.57-2.72q9.85-4.92,12.06-12.56h-5.27q-4.59,9.17-16.47,13.75l-.34-.34a20.09,20.09,0,0,0-2.72-3.06q11-3.73,14.77-10.35h-5.43a39.14,39.14,0,0,1-6.8,5.26,12.56,12.56,0,0,0-2.88-3.22,28.25,28.25,0,0,0,10.36-9.17Zm4.59-6.79v3.39h22.59V81.47Zm0-6.28v3.22h22.59V75.19ZM209.4,86.4V71.62h23.77V86.4H223.5v4.75h12.74v4.08H226q3.06,5.09,10.54,8.66c-.23.34-.62,1-1.19,1.87s-1,1.53-1.2,1.87q-7.64-4.25-10.69-10.53v13.25h-4.59V97.27a27.25,27.25,0,0,1-11.21,10.87,17.14,17.14,0,0,0-2.72-3.4,31.28,31.28,0,0,0,11.21-9.51H206V91.15h12.9V86.4Zm-9.51,23.94h4.25V80.29a62.44,62.44,0,0,0,3.06-9.17l-4.42-1.19a78.73,78.73,0,0,1-7.64,19c.11.68.28,1.75.51,3.22.22,1,.4,1.87.51,2.55q2-2.89,3.74-5.6v21.22ZM213.82,75.7v6.8h15.11V75.7Zm31.62,7.47V73h14.1V69.76h4.41V73H278V83.17H263.95v2.72h18.34v3.57H241.2V85.89h18.34V83.17Zm33.11,27.35q-8.66-3.4-17.15-5.95-3.05,4.25-17.66,5.95a1.76,1.76,0,0,1-.34-.68q-1-2.38-1.53-3.4,13.92-1.18,16.13-4.25a8.44,8.44,0,0,0,1.53-4.92h4.76a37.73,37.73,0,0,1-.85,4.07q9.35,2.89,17.16,5.27l-2,3.91Zm-32.43-7.64h4.59V95.74h22.24v6.79h4.41V92.34H246.12v10.53ZM273.8,76.38h-9.85v3.39h9.85V76.38Zm-24.11,0v3.39h9.85V76.38Zm37.39,25V97.44h7V81.13q14.94,0,26.66-1l1.35,3.73q-9.85.68-23.43,1v3.56h27v3.74h-8.15v5.26h10.69v3.91ZM288.6,82.5h4.59V77.4h29v4.92h4.59V73.66H311c-.34-1.36-.74-2.72-1.19-4.07l-5.27.34,1,3.73h-17V82.5Zm10,9.68v5.26h14.26V92.18ZM290,110.68a30.73,30.73,0,0,0-2-4.07A77.6,77.6,0,0,0,302.36,102l2,3.57q-6.63,2.54-14.43,5.09Zm35.32-.17q-6.12-2.38-14.78-4.93l1.87-3.4q1.53.51,4.76,1.53,7,1.87,10,2.72Z"/><path class="cls-1" d="M185.42,39.75H157.53a11.7,11.7,0,0,0,2.91,7.64,9.16,9.16,0,0,0,7,2.74,11.83,11.83,0,0,0,6.43-1.62,13.42,13.42,0,0,0,4.5-5.22L185.06,47a20.45,20.45,0,0,1-7.28,7.84,19.59,19.59,0,0,1-10.2,2.57q-8.38,0-13.35-5.11t-5-13.65a18.53,18.53,0,0,1,5.14-13.49,17.58,17.58,0,0,1,13.19-5.27q8.42,0,13.14,4.82t4.71,13.5v1.51Zm-8.28-5.38a8.41,8.41,0,0,0-2.88-5.71,11.65,11.65,0,0,0-12.87-.06A10.31,10.31,0,0,0,158,34.37Z"/><path class="cls-1" d="M198.59,38.39A12.94,12.94,0,0,0,201.34,47a8.78,8.78,0,0,0,7.07,3.28,8.54,8.54,0,0,0,7-3c1.66-2,2.49-4.87,2.49-8.58s-.87-6.56-2.59-8.63a9.73,9.73,0,0,0-14.18-.1c-1.7,2-2.55,4.82-2.55,8.43ZM198.85,0V26.76a10.56,10.56,0,0,1,4.47-5.11,14.33,14.33,0,0,1,7.33-1.8A14,14,0,0,1,221.93,25q4.31,5.12,4.32,13.48,0,8.8-4.25,13.85t-11.64,5.06a13.25,13.25,0,0,1-11.52-6v4.52h-8V0Z"/><path class="cls-1" d="M267.09,56h-8V51.49a13.25,13.25,0,0,1-11.52,6q-7.38,0-11.64-5.06t-4.25-13.85q0-8.35,4.35-13.48a15.33,15.33,0,0,1,18.63-3.35,10.48,10.48,0,0,1,4.43,5.12V21.13h8V56Zm-7.76-17.56c0-3.6-.84-6.4-2.52-8.43a8.69,8.69,0,0,0-7-3,8.79,8.79,0,0,0-7.12,3.11q-2.58,3.11-2.59,8.63c0,3.71.83,6.56,2.5,8.58a9.44,9.44,0,0,0,14.07-.26A13.06,13.06,0,0,0,259.32,38.45Z"/><path class="cls-1" d="M302.52,38.68a11.65,11.65,0,0,0-3.13-8.23,10.36,10.36,0,0,0-15.28,0A11.61,11.61,0,0,0,281,38.68a11.61,11.61,0,0,0,3.15,8.23,10.33,10.33,0,0,0,15.26,0,11.62,11.62,0,0,0,3.15-8.23Zm-30-.08A18.19,18.19,0,0,1,274,31.38a18.47,18.47,0,0,1,4.17-6.05,18.94,18.94,0,0,1,6.19-4,19.52,19.52,0,0,1,7.32-1.39,19.74,19.74,0,0,1,7.41,1.39,19.09,19.09,0,0,1,6.24,4.12,18.59,18.59,0,0,1,4.19,6.08,18,18,0,0,1,1.43,7.1,18.6,18.6,0,0,1-1.42,7.25,17.79,17.79,0,0,1-4.13,6A20.17,20.17,0,0,1,299,56a19.63,19.63,0,0,1-14.66,0A19.31,19.31,0,0,1,274,45.81,18.28,18.28,0,0,1,272.53,38.6Z"/><path class="cls-1" d="M329.19,51.61a5.82,5.82,0,1,1-11.64,0,5.46,5.46,0,0,1,1.7-4.06,5.93,5.93,0,0,1,8.25,0A5.46,5.46,0,0,1,329.19,51.61Z"/><path class="cls-1" d="M347.71,56.89l-18.29-37h8.72l7.62,17.54a24.6,24.6,0,0,1,.88,2.44c.34,1.08.7,2.36,1.07,3.86.25-1.05.54-2.1.87-3.14a30.38,30.38,0,0,1,1.19-3.15l7.59-17.54H366Z"/><path class="cls-1" d="M369.85,5.19a5,5,0,0,1,1.56-3.66A5.08,5.08,0,0,1,375.11,0a5.07,5.07,0,0,1,5.19,5.19,5.12,5.12,0,0,1-1.5,3.74,5,5,0,0,1-3.7,1.52,5.06,5.06,0,0,1-3.7-1.56,5.06,5.06,0,0,1-1.56-3.7ZM371,57.38V19.91h8.34V57.38Z"/><path class="cls-1" d="M397.53,38.45a13,13,0,0,0,2.71,8.65,8.79,8.79,0,0,0,7.11,3.24,8.54,8.54,0,0,0,7-3c1.66-2,2.49-4.87,2.49-8.58s-.87-6.56-2.59-8.63a9.73,9.73,0,0,0-14.18-.1c-1.7,2-2.55,4.82-2.55,8.43Zm-7.72,34V21.13h8v5.69a10.57,10.57,0,0,1,4.47-5.11,14.33,14.33,0,0,1,7.33-1.8,14,14,0,0,1,11.28,5.14q4.31,5.12,4.32,13.48,0,8.8-4.25,13.85t-11.64,5.06a13.25,13.25,0,0,1-11.52-6V72.42Z"/><path class="cls-1" d="M65.3,0a65.1,65.1,0,0,1,46.94,19.91H71.11A45.52,45.52,0,0,0,25.73,65.3h0a45.52,45.52,0,0,0,45.38,45.38h41.13A65.29,65.29,0,1,1,65.3,0Z"/><path class="cls-1" d="M71.19,39h53.89a65.43,65.43,0,0,1-.2,53H71.19A26.61,26.61,0,0,1,46.37,74.8H96.55a9.35,9.35,0,0,0,9.33-9.33h0a9.35,9.35,0,0,0-9.33-9.33H46.41A26.61,26.61,0,0,1,71.19,39Z"/></g></g></svg>